# Blender 4.5.4 LTS
# www.blender.org
mtllib tile_low.mtl
o Cylinder
v 0.000000 0.100000 -0.884530
v 0.086603 -0.000000 -0.950000
v -0.086603 -0.000000 -0.950000
v 0.043244 0.086640 -0.914393
v -0.043244 0.086640 -0.914393
v 0.000000 0.073663 -0.941786
v 0.075033 0.049934 -0.938424
v 0.022380 0.047821 -0.958705
v -0.075033 0.049934 -0.938424
v -0.022380 0.047821 -0.958705
v 0.779423 -0.000000 -0.550000
v 0.766025 0.100000 -0.442265
v 0.866025 -0.000000 -0.400000
v 0.775183 0.049934 -0.534193
v 0.819073 0.047821 -0.498734
v 0.813510 0.086640 -0.419746
v 0.770265 0.086640 -0.494647
v 0.815611 0.073663 -0.470893
v 0.850216 0.049934 -0.404232
v 0.841453 0.047821 -0.459971
v 0.866025 0.000000 0.400000
v 0.766025 0.100000 0.442265
v 0.779423 0.000000 0.550000
v 0.850216 0.049934 0.404232
v 0.841453 0.047821 0.459971
v 0.770265 0.086640 0.494647
v 0.813510 0.086640 0.419746
v 0.815611 0.073663 0.470893
v 0.775183 0.049934 0.534193
v 0.819073 0.047821 0.498734
v 0.086603 0.000000 0.950000
v 0.000000 0.100000 0.884530
v -0.086603 0.000000 0.950000
v 0.075033 0.049934 0.938424
v 0.022380 0.047821 0.958705
v -0.043244 0.086640 0.914393
v 0.043244 0.086640 0.914393
v 0.000000 0.073663 0.941786
v -0.075033 0.049934 0.938424
v -0.022380 0.047821 0.958705
v -0.779423 0.000000 0.550000
v -0.766025 0.100000 0.442265
v -0.866025 0.000000 0.400000
v -0.775183 0.049934 0.534193
v -0.819073 0.047821 0.498734
v -0.813510 0.086640 0.419746
v -0.770265 0.086640 0.494647
v -0.815611 0.073663 0.470893
v -0.850216 0.049934 0.404232
v -0.841453 0.047821 0.459971
v -0.866025 -0.000000 -0.400000
v -0.766025 0.100000 -0.442265
v -0.779423 -0.000000 -0.550000
v -0.850216 0.049934 -0.404232
v -0.841453 0.047821 -0.459971
v -0.770265 0.086640 -0.494647
v -0.813510 0.086640 -0.419746
v -0.815611 0.073663 -0.470893
v -0.775183 0.049934 -0.534193
v -0.819073 0.047821 -0.498734
v 0.000000 0.000000 0.971116
v 0.841012 0.000000 0.485559
v 0.841012 -0.000000 -0.485559
v -0.841012 -0.000000 -0.485559
v -0.841012 0.000000 0.485559
v 0.000000 -0.000000 -0.971116
vn 0.4767 0.3018 -0.8256
vn 0.3536 0.7071 -0.6124
vn 0.1354 0.9626 -0.2346
vn 0.9534 0.3018 -0.0000
vn 0.7071 0.7071 -0.0000
vn 0.2708 0.9626 -0.0000
vn 0.4767 0.3018 0.8256
vn 0.3536 0.7071 0.6124
vn 0.1354 0.9626 0.2346
vn -0.4767 0.3018 0.8256
vn -0.3536 0.7071 0.6124
vn -0.1354 0.9626 0.2346
vn -0.9534 0.3018 -0.0000
vn -0.7071 0.7071 -0.0000
vn -0.2708 0.9626 -0.0000
vn -0.4767 0.3018 -0.8256
vn -0.3536 0.7071 -0.6124
vn -0.1354 0.9626 -0.2346
vn -0.0000 1.0000 -0.0000
vn -0.0000 0.9085 0.4179
vn -0.0000 0.5478 0.8366
vn -0.2433 0.6699 0.7014
vn 0.2433 0.6699 0.7014
vn -0.2764 0.2001 0.9400
vn -0.0000 0.2512 0.9679
vn 0.2764 0.2001 0.9400
vn 0.7246 0.5478 0.4183
vn 0.6105 0.2857 0.7387
vn 0.7158 0.1399 0.6841
vn 0.8382 0.2512 0.4840
vn 0.9450 0.2857 0.1594
vn 0.9504 0.1399 0.2778
vn 0.9504 0.1399 -0.2778
vn 0.9450 0.2857 -0.1594
vn 0.4858 0.6699 0.5614
vn 0.3619 0.9085 0.2089
vn 0.7291 0.6699 0.1400
vn 0.7291 0.6699 -0.1400
vn 0.3619 0.9085 -0.2089
vn 0.4858 0.6699 -0.5614
vn 0.8382 0.2512 -0.4840
vn 0.7158 0.1399 -0.6841
vn 0.6105 0.2857 -0.7387
vn 0.2346 0.1399 -0.9620
vn 0.3345 0.2857 -0.8981
vn 0.2433 0.6699 -0.7014
vn -0.0000 0.9085 -0.4179
vn -0.0000 0.5478 -0.8366
vn -0.2433 0.6699 -0.7014
vn -0.3345 0.2857 -0.8981
vn -0.0000 0.2512 -0.9679
vn -0.2346 0.1399 -0.9620
vn -0.3619 0.9085 -0.2089
vn -0.4858 0.6699 -0.5614
vn -0.7291 0.6699 -0.1400
vn -0.6105 0.2857 -0.7387
vn -0.3619 0.9085 0.2089
vn -0.7291 0.6699 0.1400
vn -0.9450 0.2857 0.1594
vn -0.9504 0.1399 0.2778
vn -0.8382 0.2512 0.4840
vn -0.7246 0.5478 0.4183
vn -0.4858 0.6699 0.5614
vn -0.7158 0.1399 0.6841
vn -0.6105 0.2857 0.7387
vn 0.7246 0.5478 -0.4183
vn -0.7158 0.1399 -0.6841
vn -0.7246 0.5478 -0.4183
vn -0.8382 0.2512 -0.4840
vn -0.9504 0.1399 -0.2778
vn -0.9450 0.2857 -0.1594
vt 0.850000 0.975000
vt 0.983333 0.975000
vt 0.984039 1.000000
vt 0.849295 1.000000
vt 0.437941 0.381492
vt 0.269905 0.478508
vt 0.260379 0.469454
vt 0.434864 0.368715
vt 0.250000 0.462287
vt 0.433846 0.356144
vt 0.683333 0.975000
vt 0.816667 0.975000
vt 0.817372 1.000000
vt 0.682628 1.000000
vt 0.457846 0.152984
vt 0.457846 0.347016
vt 0.445242 0.350739
vt 0.445242 0.149261
vt 0.433846 0.143856
vt 0.516667 0.975000
vt 0.650000 0.975000
vt 0.650705 1.000000
vt 0.515961 1.000000
vt 0.269905 0.021492
vt 0.437941 0.118508
vt 0.434864 0.131285
vt 0.260379 0.030546
vt 0.250000 0.037713
vt 0.350000 0.975000
vt 0.483333 0.975000
vt 0.484039 1.000000
vt 0.349295 1.000000
vt 0.062059 0.118508
vt 0.230095 0.021492
vt 0.239621 0.030546
vt 0.065136 0.131285
vt 0.066154 0.143856
vt 0.183333 0.975000
vt 0.316667 0.975000
vt 0.317372 1.000000
vt 0.182628 1.000000
vt 0.042154 0.347016
vt 0.042154 0.152984
vt 0.054758 0.149261
vt 0.054758 0.350739
vt 0.066154 0.356144
vt 0.016667 0.975000
vt 0.150000 0.975000
vt 0.150705 1.000000
vt 0.015961 1.000000
vt 0.230095 0.478508
vt 0.062059 0.381492
vt 0.065136 0.368715
vt 0.239621 0.469454
vt 0.000000 0.000000
s 0
f 11/1/1 2/2/1 7/3/1 14/4/1
f 14/5/2 7/6/2 4/7/2 17/8/2
f 17/8/3 4/7/3 1/9/3 12/10/3
f 21/11/4 13/12/4 19/13/4 24/14/4
f 24/15/5 19/16/5 16/17/5 27/18/5
f 27/18/6 16/17/6 12/10/6 22/19/6
f 31/20/7 23/21/7 29/22/7 34/23/7
f 34/24/8 29/25/8 26/26/8 37/27/8
f 37/27/9 26/26/9 22/19/9 32/28/9
f 41/29/10 33/30/10 39/31/10 44/32/10
f 44/33/11 39/34/11 36/35/11 47/36/11
f 47/36/12 36/35/12 32/28/12 42/37/12
f 51/38/13 43/39/13 49/40/13 54/41/13
f 54/42/14 49/43/14 46/44/14 57/45/14
f 57/45/15 46/44/15 42/37/15 52/46/15
f 3/47/16 53/48/16 59/49/16 9/50/16
f 9/51/17 59/52/17 56/53/17 5/54/17
f 5/54/18 56/53/18 52/46/18 1/9/18
f 12/10/19 1/9/19 52/46/19 42/37/19 32/28/19 22/19/19
f 38/55/20 37/27/20 32/28/20 36/35/20
f 38/55/21 40/55/21 35/55/21
f 38/55/22 36/35/22 39/34/22 40/55/22
f 35/55/23 34/24/23 37/27/23 38/55/23
f 39/31/24 33/30/24 61/55/24 40/55/24
f 40/55/25 61/55/25 35/55/25
f 31/20/26 34/24/26 35/55/26 61/55/26
f 28/55/27 30/55/27 25/55/27
f 30/55/28 29/22/28 23/21/28
f 30/55/29 23/21/29 62/55/29
f 30/55/30 62/55/30 25/55/30
f 24/14/31 25/55/31 21/11/31
f 25/55/32 62/55/32 21/11/32
f 20/55/33 13/55/33 63/55/33
f 19/13/34 13/12/34 20/55/34
f 28/55/35 26/26/35 29/22/35 30/55/35
f 28/55/36 27/18/36 22/19/36 26/26/36
f 25/55/37 24/15/37 27/18/37 28/55/37
f 18/55/38 16/17/38 19/13/38 20/55/38
f 18/55/39 17/8/39 12/10/39 16/17/39
f 15/55/40 14/5/40 17/8/40 18/55/40
f 20/55/41 63/55/41 15/55/41
f 11/55/42 15/55/42 63/55/42
f 11/55/43 14/5/43 15/55/43
f 2/2/44 66/55/44 8/55/44
f 7/3/45 2/2/45 8/55/45
f 6/55/46 4/7/46 7/3/46 8/55/46
f 5/54/47 1/9/47 4/7/47 6/55/47
f 8/55/48 10/55/48 6/55/48
f 6/55/49 10/55/49 9/51/49 5/54/49
f 9/51/50 10/55/50 3/47/50
f 66/55/51 10/55/51 8/55/51
f 10/55/52 66/55/52 3/47/52
f 58/55/53 57/45/53 52/46/53 56/53/53
f 58/55/54 56/53/54 59/52/54 60/55/54
f 55/55/55 54/42/55 57/45/55 58/55/55
f 59/49/56 53/48/56 60/55/56
f 48/55/57 47/36/57 42/37/57 46/44/57
f 48/55/58 46/44/58 49/43/58 50/55/58
f 49/40/59 43/39/59 50/55/59
f 50/55/60 43/39/60 65/55/60
f 65/55/61 45/55/61 50/55/61
f 45/55/62 48/55/62 50/55/62
f 45/55/63 44/33/63 47/36/63 48/55/63
f 41/55/64 45/55/64 65/55/64
f 41/55/65 44/33/65 45/55/65
f 18/55/66 20/55/66 15/55/66
f 64/55/67 60/55/67 53/48/67
f 58/55/68 60/55/68 55/55/68
f 60/55/69 64/55/69 55/55/69
f 64/55/70 51/55/70 55/55/70
f 54/42/71 55/55/71 51/55/71
